<svg width="30" height="30" viewBox="0 0 30 30" fill="none" xmlns="http://www.w3.org/2000/svg">
<g clip-path="url(#clip0_59_1362)">
<path d="M30 15C30 12.0333 29.1203 9.13319 27.472 6.66645C25.8238 4.19972 23.4811 2.27713 20.7403 1.14181C17.9994 0.00649929 14.9834 -0.290551 12.0737 0.288228C9.16394 0.867006 6.49119 2.29562 4.3934 4.3934C2.29562 6.49119 0.867006 9.16394 0.288228 12.0737C-0.290551 14.9834 0.00649929 17.9994 1.14181 20.7403C2.27713 23.4811 4.19972 25.8238 6.66645 27.472C9.13319 29.1203 12.0333 30 15 30C18.9769 29.9957 22.7897 28.414 25.6019 25.6019C28.414 22.7897 29.9957 18.9769 30 15ZM2.50001 15C2.50001 12.5277 3.23312 10.111 4.60664 8.05538C5.98015 5.99976 7.93239 4.39761 10.2165 3.45151C12.5005 2.50542 15.0139 2.25788 17.4386 2.74019C19.8634 3.22251 22.0907 4.41302 23.8388 6.16117C25.587 7.90933 26.7775 10.1366 27.2598 12.5614C27.7421 14.9861 27.4946 17.4995 26.5485 19.7836C25.6024 22.0676 24.0002 24.0199 21.9446 25.3934C19.889 26.7669 17.4723 27.5 15 27.5C11.6859 27.4964 8.50861 26.1782 6.16519 23.8348C3.82178 21.4914 2.50365 18.3141 2.50001 15Z" fill="#6F5E58"/>
<path d="M10 15C9.99906 14.085 10.3335 13.2013 10.94 12.5162C11.3038 12.1075 11.6575 11.72 11.9113 11.4662L15.4413 7.87499C15.6765 7.65398 15.9881 7.53254 16.3109 7.53609C16.6336 7.53964 16.9425 7.6679 17.1729 7.89403C17.4032 8.12016 17.5371 8.42663 17.5466 8.74927C17.5561 9.07191 17.4404 9.38571 17.2238 9.62499L13.6875 13.225C13.4538 13.46 13.1363 13.81 12.8125 14.1737C12.6111 14.4021 12.4999 14.6961 12.4999 15.0006C12.4999 15.3051 12.6111 15.5991 12.8125 15.8275C13.135 16.19 13.4525 16.54 13.6788 16.7675L17.2238 20.375C17.4404 20.6143 17.5561 20.9281 17.5466 21.2507C17.5371 21.5733 17.4032 21.8798 17.1729 22.1059C16.9425 22.3321 16.6336 22.4603 16.3109 22.4639C15.9881 22.4674 15.6765 22.346 15.4413 22.125L11.905 18.5275C11.655 18.2775 11.305 17.8937 10.9438 17.4862C10.335 16.8012 9.99914 15.9164 10 15Z" fill="#6F5E58"/>
</g>
<defs>
<clipPath id="clip0_59_1362">
<rect width="30" height="30" fill="white"/>
</clipPath>
</defs>
</svg>
