<svg width="30" height="30" viewBox="0 0 30 30" fill="none" xmlns="http://www.w3.org/2000/svg">
<g clip-path="url(#clip0_59_438)">
<path d="M-6.31805e-06 15C-6.57741e-06 17.9667 0.879729 20.8668 2.52795 23.3335C4.17617 25.8003 6.51885 27.7229 9.25974 28.8582C12.0006 29.9935 15.0166 30.2905 17.9263 29.7118C20.8361 29.133 23.5088 27.7044 25.6066 25.6066C27.7044 23.5088 29.133 20.8361 29.7118 17.9263C30.2906 15.0166 29.9935 12.0006 28.8582 9.25974C27.7229 6.51885 25.8003 4.17617 23.3335 2.52795C20.8668 0.879728 17.9667 -8.68138e-06 15 -8.94074e-06C11.0231 0.00429178 7.21026 1.58603 4.39814 4.39814C1.58603 7.21025 0.0042951 11.0231 -6.31805e-06 15ZM27.5 15C27.5 17.4723 26.7669 19.889 25.3934 21.9446C24.0198 24.0002 22.0676 25.6024 19.7835 26.5485C17.4995 27.4946 14.9861 27.7421 12.5614 27.2598C10.1366 26.7775 7.90932 25.587 6.16116 23.8388C4.413 22.0907 3.22249 19.8634 2.74018 17.4386C2.25786 15.0139 2.5054 12.5005 3.4515 10.2164C4.39759 7.93237 5.99975 5.98014 8.05537 4.60662C10.111 3.2331 12.5277 2.49999 15 2.49999C18.3141 2.50363 21.4914 3.82176 23.8348 6.16518C26.1782 8.50859 27.4964 11.6859 27.5 15Z" fill="#6F5E58"/>
<path d="M20 15C20.0009 15.915 19.6665 16.7987 19.06 17.4838C18.6962 17.8925 18.3425 18.28 18.0887 18.5338L14.5587 22.125C14.3235 22.346 14.0119 22.4675 13.6891 22.4639C13.3664 22.4604 13.0575 22.3321 12.8271 22.106C12.5968 21.8798 12.4629 21.5734 12.4534 21.2507C12.4439 20.9281 12.5596 20.6143 12.7762 20.375L16.3125 16.775C16.5462 16.54 16.8637 16.19 17.1875 15.8263C17.3889 15.5979 17.5001 15.3039 17.5001 14.9994C17.5001 14.6949 17.3889 14.4009 17.1875 14.1725C16.865 13.81 16.5475 13.46 16.3212 13.2325L12.7762 9.62501C12.5596 9.38574 12.4439 9.07193 12.4534 8.74929C12.4629 8.42665 12.5968 8.12019 12.8272 7.89406C13.0575 7.66793 13.3664 7.53966 13.6891 7.53611C14.0119 7.53256 14.3235 7.654 14.5587 7.87501L18.095 11.4725C18.345 11.7225 18.695 12.1063 19.0562 12.5138C19.665 13.1988 20.0009 14.0836 20 15Z" fill="#6F5E58"/>
</g>
<defs>
<clipPath id="clip0_59_438">
<rect width="30" height="30" fill="white" transform="translate(30 30) rotate(-180)"/>
</clipPath>
</defs>
</svg>
