<svg width="196" height="30" viewBox="0 0 196 30" fill="none" xmlns="http://www.w3.org/2000/svg">
<g clip-path="url(#clip0_52_114)">
<g clip-path="url(#clip1_52_114)">
<path d="M194.592 4.64032H177.816C177.733 4.63968 177.65 4.65548 177.573 4.68683C177.495 4.71818 177.425 4.76446 177.365 4.82303C177.306 4.8816 177.259 4.95132 177.226 5.02819C177.194 5.10506 177.176 5.1876 177.176 5.27107V6.28319C177.176 6.36667 177.194 6.4492 177.226 6.52607C177.259 6.60295 177.306 6.67266 177.365 6.73123C177.425 6.7898 177.495 6.83608 177.573 6.86743C177.65 6.89878 177.733 6.91458 177.816 6.91394H194.573C194.656 6.91458 194.739 6.89878 194.816 6.86743C194.894 6.83608 194.964 6.7898 195.024 6.73123C195.083 6.67266 195.13 6.60295 195.163 6.52607C195.195 6.4492 195.213 6.36667 195.213 6.28319V5.27107C195.212 5.10585 195.146 4.9476 195.031 4.82985C194.915 4.71211 194.757 4.64413 194.592 4.64032Z" fill="#6F5E58"/>
<path d="M181.376 22.9222C181.581 25.5576 177.811 26.9951 177.811 26.9951C177.811 26.9951 190.656 27.0244 191.365 23.1177C191.384 23.082 191.399 23.0443 191.409 23.0053L194.064 7.57892H178.384L181.376 22.9222ZM188.994 11.1287C189.575 11.5411 190.011 12.1263 190.241 12.8009C190.633 13.9754 190.621 15.2474 190.206 16.4142C189.898 17.4067 189.359 18.3117 188.632 19.0546C188.209 19.499 187.713 19.8678 187.165 20.1449C186.558 20.4705 185.873 20.6227 185.185 20.585C184.909 20.5534 184.636 20.4994 184.368 20.4236C184.342 20.4101 184.319 20.3907 184.301 20.367C184.283 20.3433 184.271 20.3158 184.266 20.2867C184.204 19.6923 184.293 19.092 184.525 18.5412C184.942 17.5911 185.579 16.7533 186.383 16.0964C187.075 15.5146 187.671 14.8264 188.148 14.0575C188.659 13.2277 188.944 12.2787 188.974 11.3047C188.979 11.2607 188.989 11.202 188.994 11.1287ZM182.276 15.7102C182.499 14.3526 183.134 13.0963 184.094 12.1115C184.615 11.5544 185.22 11.084 185.889 10.718C186.657 10.4344 187.449 10.0041 188.397 10.7815C188.463 11.7437 188.245 12.7041 187.771 13.5441C187.274 14.3908 186.632 15.1438 185.874 15.7688C185.064 16.459 184.421 17.3253 183.997 18.3016C183.782 18.8483 183.673 19.4305 183.674 20.0178C183.327 19.7783 183.037 19.4663 182.823 19.1035C182.224 18.0801 182.029 16.87 182.276 15.7102Z" fill="#6F5E58"/>
<path d="M192.749 2H179.679C179.19 2 178.78 2.85077 178.701 3.9558H193.727C193.649 2.85077 193.243 2 192.749 2Z" fill="#6F5E58"/>
<path d="M16.0131 23.416C15.9815 23.6266 15.8839 23.8217 15.7344 23.9734C14.9492 24.9284 13.9546 25.6898 12.8277 26.1986C11.7008 26.7073 10.4719 26.9497 9.23625 26.9071C7.97756 26.953 6.724 26.7239 5.56289 26.2359C4.40178 25.7478 3.36105 25.0124 2.5132 24.081C0.802889 22.1785 -0.0986388 19.6844 -5.95907e-06 17.1281C-0.0664645 14.6214 0.805382 12.1803 2.44474 10.2828C3.24387 9.33395 4.24661 8.57744 5.3784 8.06953C6.5102 7.56162 7.74192 7.31538 8.982 7.34911C11.8538 7.34911 14.1046 8.23085 15.7344 9.99432C15.8831 10.1294 15.9785 10.3133 16.0033 10.5126C15.7748 11.173 15.4643 11.8022 15.0792 12.3853C14.751 13.0247 14.3612 13.6306 13.9155 14.1944C13.843 14.2629 13.7463 14.2998 13.6466 14.2971C13.4061 14.1483 13.1845 13.971 12.9865 13.769C12.5576 13.386 12.083 13.0575 11.5734 12.7911C10.9032 12.4346 10.1568 12.245 9.39761 12.2386C8.79794 12.2187 8.20209 12.3412 7.65896 12.5962C7.11584 12.8512 6.64093 13.2313 6.27322 13.7055C5.53736 14.6635 5.15712 15.8474 5.19753 17.0548C5.15491 18.2744 5.5349 19.4714 6.27322 20.4432C6.6393 20.9191 7.1139 21.3006 7.65742 21.5557C8.20093 21.8109 8.79759 21.9324 9.39761 21.91C10.1556 21.9175 10.9052 21.7502 11.5881 21.4211C12.0871 21.1718 12.5522 20.8596 12.9718 20.4921C13.1681 20.3035 13.3865 20.1393 13.6221 20.0031C13.674 20.0074 13.7244 20.0227 13.77 20.048C13.8155 20.0733 13.8551 20.108 13.8862 20.1498C14.028 20.3063 14.4142 20.8637 15.045 21.8073C15.4183 22.3115 15.7424 22.8501 16.0131 23.416Z" fill="#6F5E58"/>
<path d="M30.1535 19.8809C30.1905 20.7836 30.045 21.6845 29.7257 22.5296C29.4065 23.3748 28.92 24.1469 28.2955 24.7997C27.6555 25.4356 26.8905 25.9317 26.0488 26.2565C25.2072 26.5814 24.3073 26.728 23.406 26.6871C22.5199 26.7172 21.6368 26.5677 20.8099 26.2475C19.9831 25.9274 19.2296 25.4432 18.5948 24.8242C17.9726 24.2011 17.4849 23.4569 17.162 22.6377C16.839 21.8186 16.6876 20.9418 16.7172 20.0618C16.6391 18.22 17.2889 16.4214 18.5263 15.055C19.7291 13.7739 21.3589 13.135 23.4158 13.1383C24.3162 13.0973 25.2154 13.2429 26.0568 13.566C26.8982 13.8891 27.6638 14.3827 28.3053 15.0158C28.9246 15.6608 29.4075 16.4241 29.7251 17.2601C30.0427 18.096 30.1884 18.9874 30.1535 19.8809ZM25.7921 19.8809C25.8012 19.2057 25.5708 18.5492 25.1418 18.0278C24.9437 17.7703 24.6878 17.563 24.3947 17.4229C24.1017 17.2827 23.7797 17.2136 23.4549 17.221C23.1222 17.2159 22.7928 17.2878 22.4925 17.4311C22.1923 17.5745 21.9292 17.7854 21.724 18.0473C21.312 18.5725 21.0881 19.2207 21.0881 19.8882C21.0881 20.5557 21.312 21.2039 21.724 21.7291C21.9295 21.9905 22.1927 22.2006 22.493 22.3432C22.7933 22.4857 23.1226 22.5567 23.4549 22.5506C23.7844 22.5559 24.1105 22.4844 24.4075 22.3419C24.7046 22.1993 24.9643 21.9895 25.1662 21.7291C25.5845 21.2057 25.8029 20.5506 25.7823 19.8809H25.7921Z" fill="#6F5E58"/>
<path d="M39.9325 17.8469C39.9325 18.062 39.8152 18.1647 39.5854 18.1647C38.6075 18.1647 37.879 18.1402 37.3264 18.0864C37.3558 18.7514 37.3802 19.6755 37.4096 20.8637C37.4096 21.3526 37.4585 22.2474 37.5269 23.4942C37.5905 24.6237 37.6198 25.4989 37.6198 26.1297C37.6198 26.3155 37.4976 26.4181 37.2482 26.4475C36.9988 26.4768 36.1921 26.5013 34.9893 26.5013C34.3362 26.5189 33.6827 26.4911 33.0335 26.4181C32.9674 26.4139 32.9029 26.3963 32.8438 26.3664C32.7847 26.3365 32.7323 26.295 32.6898 26.2442C32.6473 26.1935 32.6155 26.1346 32.5964 26.0712C32.5773 26.0078 32.5713 25.9412 32.5787 25.8754V18.5412C32.5787 18.2869 32.4027 18.1549 32.0458 18.1549H31.7475H31.4493C31.1999 18.1549 31.0728 18.0816 31.063 17.9398C30.9848 17.1721 30.9457 16.0475 30.9457 14.5807C30.9356 14.4371 30.9806 14.2951 31.0714 14.1834C31.1622 14.0717 31.292 13.9988 31.4346 13.9793C31.7378 13.9793 32.0409 13.9304 32.3538 13.9157C32.3049 13.2067 32.2854 12.6542 32.2854 12.2533C32.2854 10.7277 32.5836 9.62272 33.1753 8.92842C34.352 7.55936 36.2573 6.87319 38.8911 6.86993C39.0671 6.86993 39.1747 6.92372 39.2089 7.03129C39.2822 7.42734 39.38 8.00919 39.512 8.7964C39.512 8.86811 39.5707 9.11747 39.6881 9.54449C39.7544 9.79047 39.7938 10.043 39.8054 10.2975C39.8054 10.5126 39.4925 10.6495 38.8617 10.7131C38.3855 10.7073 37.9186 10.8453 37.522 11.1091C37.2287 11.4351 37.082 12.061 37.082 12.9867C37.0816 13.2619 37.1045 13.5367 37.1504 13.8081C37.3949 13.8081 37.7812 13.8081 38.3043 13.7837C38.8275 13.7592 39.2236 13.7543 39.4876 13.7543C39.7516 13.7543 39.8885 13.8521 39.8885 14.0477C39.8885 14.4633 39.8885 15.0892 39.8885 15.9302C39.8885 16.7712 39.9325 17.4313 39.9325 17.8469Z" fill="#6F5E58"/>
<path d="M49.5355 17.8469C49.5355 18.062 49.4182 18.1647 49.1884 18.1647C48.2105 18.1647 47.477 18.1402 46.9294 18.0864C46.9294 18.7514 46.9832 19.6755 47.0076 20.8637C47.0076 21.3526 47.0565 22.2474 47.125 23.4942C47.1886 24.6237 47.2228 25.4989 47.2228 26.1297C47.2228 26.3155 47.0957 26.4181 46.8463 26.4475C46.5969 26.4768 45.7951 26.5013 44.5873 26.5013C43.9343 26.5189 43.2808 26.4911 42.6315 26.4181C42.5655 26.4139 42.5009 26.3963 42.4419 26.3664C42.3828 26.3365 42.3304 26.295 42.2879 26.2442C42.2454 26.1935 42.2136 26.1346 42.1945 26.0712C42.1754 26.0078 42.1694 25.9412 42.1768 25.8754V18.5412C42.1768 18.2869 42.0008 18.1549 41.6488 18.1549H41.3456H41.0474C40.8029 18.1549 40.6709 18.0816 40.666 17.9398C40.5828 17.1721 40.5437 16.0475 40.5437 14.5807C40.5337 14.4371 40.5787 14.2951 40.6695 14.1834C40.7602 14.0717 40.8901 13.9988 41.0327 13.9793C41.3358 13.9793 41.639 13.9304 41.9519 13.9157C41.9079 13.2067 41.8835 12.6542 41.8835 12.2533C41.8835 10.7277 42.1817 9.62272 42.7733 8.92842C43.9533 7.55936 45.8586 6.87319 48.4892 6.86993C48.6701 6.86993 48.7728 6.92372 48.807 7.03129C48.8803 7.42734 48.983 8.00919 49.115 8.7964C49.115 8.86974 49.1835 9.1191 49.2862 9.54449C49.356 9.78989 49.397 10.0426 49.4084 10.2975C49.4084 10.5126 49.0906 10.6495 48.4647 10.7131C47.987 10.7075 47.5185 10.8455 47.1201 11.1091C46.8267 11.4269 46.6849 12.0528 46.6849 12.9867C46.6904 13.2757 46.7215 13.5637 46.7778 13.8472C47.0272 13.8472 47.4135 13.8472 47.9367 13.8228C48.4598 13.7984 48.851 13.7935 49.115 13.7935C49.3791 13.7935 49.516 13.8913 49.516 14.0868C49.516 14.5024 49.516 15.1283 49.516 15.9693C49.516 16.8103 49.5355 17.4313 49.5355 17.8469Z" fill="#6F5E58"/>
<path d="M63.143 19.2061C63.143 20.1025 62.8545 20.6111 62.2775 20.7317C62.1797 20.7512 61.2638 20.849 59.5296 21.025C58.4833 21.1359 56.9235 21.2728 54.8504 21.4357C54.9183 21.7299 55.0565 22.0033 55.2533 22.2324C55.45 22.4614 55.6993 22.6394 55.9798 22.751C56.5274 23.0066 57.1261 23.1337 57.7303 23.1226C58.5645 23.1123 59.383 22.8938 60.1115 22.487L61.1236 21.8465C61.5263 22.2295 61.8444 22.6925 62.0575 23.2057C62.3661 23.6818 62.5894 24.2079 62.7176 24.7606C62.7176 24.8193 62.6491 24.922 62.5171 25.0638C61.4382 26.2275 59.7594 26.8077 57.4809 26.8044C55.601 26.8876 53.765 26.2211 52.3763 24.9513C51.7078 24.3061 51.1846 23.5258 50.8415 22.6624C50.4983 21.7991 50.3431 20.8725 50.3863 19.9444C50.3109 18.1101 50.9448 16.3171 52.1563 14.9376C52.7733 14.2631 53.5312 13.7325 54.3762 13.3836C55.2212 13.0346 56.1325 12.8757 57.0458 12.9182C57.8585 12.9064 58.6647 13.0657 59.4119 13.3858C60.1591 13.7059 60.8306 14.1796 61.3827 14.7763C61.9537 15.3621 62.4031 16.0552 62.7052 16.8154C63.0073 17.5757 63.1561 18.3882 63.143 19.2061ZM58.5126 18.3945C58.516 18.1234 58.4659 17.8544 58.3652 17.6027C58.2645 17.351 58.1152 17.1216 57.9259 16.9276C57.7512 16.7309 57.5365 16.5737 57.2962 16.4667C57.0559 16.3596 56.7954 16.305 56.5324 16.3067C56.262 16.3034 55.9948 16.3658 55.7538 16.4884C55.5128 16.611 55.3052 16.7903 55.1486 17.0108C54.8165 17.4486 54.644 17.9869 54.6597 18.5363C54.6538 18.5865 54.6596 18.6374 54.6766 18.685C54.6937 18.7327 54.7216 18.7757 54.758 18.8107C54.7945 18.8458 54.8386 18.8719 54.8868 18.8871C54.9351 18.9022 54.9862 18.906 55.0362 18.8981C56.0605 18.8631 57.0814 18.7602 58.0921 18.5901C58.3464 18.5607 58.5126 18.4923 58.5126 18.3945Z" fill="#6F5E58"/>
<path d="M76.7798 19.2061C76.7798 20.1025 76.4913 20.6111 75.9144 20.7317C75.8166 20.7317 74.9022 20.849 73.1616 21.025C72.1152 21.1359 70.5555 21.2728 68.4823 21.4357C68.5522 21.7291 68.6911 22.0016 68.8876 22.2304C69.084 22.4591 69.3323 22.6377 69.6118 22.751C70.1611 23.0067 70.7614 23.1338 71.3671 23.1226C72.2014 23.1123 73.0199 22.8938 73.7483 22.487L74.7556 21.8465C74.9462 21.9394 75.2445 22.3892 75.6943 23.2057C76.0029 23.6818 76.2263 24.208 76.3544 24.7606C76.3544 24.8193 76.286 24.922 76.1539 25.0638C75.0717 26.2275 73.393 26.8077 71.1178 26.8044C69.0055 26.8044 67.304 26.1883 66.0131 24.9562C65.3441 24.3112 64.8201 23.5311 64.4761 22.6677C64.1321 21.8044 63.976 20.8777 64.0182 19.9493C63.9468 18.1123 64.584 16.3181 65.798 14.9376C66.4132 14.2674 67.1673 13.7395 68.0075 13.3907C68.8478 13.0419 69.754 12.8807 70.663 12.9182C71.4752 12.9058 72.2808 13.0649 73.0273 13.3851C73.7738 13.7053 74.4443 14.1793 74.9951 14.7763C75.5712 15.3597 76.0255 16.0517 76.3319 16.8122C76.6383 17.5726 76.7905 18.3864 76.7798 19.2061ZM72.125 18.3945C72.1315 17.848 71.9224 17.3211 71.5431 16.9276C71.3679 16.7303 71.1524 16.5728 70.9112 16.4656C70.67 16.3585 70.4087 16.3043 70.1448 16.3067C69.8752 16.3042 69.609 16.3669 69.3689 16.4895C69.1289 16.6121 68.922 16.7909 68.7659 17.0108C68.4338 17.4487 68.2613 17.9869 68.277 18.5363C68.2712 18.586 68.277 18.6365 68.2938 18.6836C68.3106 18.7308 68.338 18.7735 68.3739 18.8085C68.4098 18.8434 68.4532 18.8697 68.5008 18.8852C68.5484 18.9007 68.599 18.9052 68.6486 18.8981C69.6729 18.8633 70.6938 18.7604 71.7045 18.5901C71.9783 18.5607 72.125 18.4923 72.125 18.3945Z" fill="#6F5E58"/>
<path d="M98.8656 12.1066C98.8656 12.2044 98.7776 12.2533 98.6016 12.2533C97.9497 12.2533 96.9408 12.1962 95.575 12.0821C94.2092 11.968 93.1971 11.9094 92.5386 11.9061C92.0477 11.8799 91.5554 11.911 91.0718 11.999C90.7442 12.1506 90.5828 12.576 90.5828 13.2752C90.5828 14.1162 90.7979 14.5953 91.2233 14.7127C91.4907 14.764 91.7629 14.7853 92.035 14.7763C92.6462 14.7763 93.5605 14.7469 94.778 14.6785C95.9955 14.61 96.9098 14.5807 97.521 14.5807C97.8144 14.5807 97.9611 15.3581 97.9611 16.9178C98.0083 17.7097 97.9591 18.5044 97.8144 19.2844C97.789 19.3577 97.7404 19.4207 97.676 19.4639C97.6116 19.5071 97.5349 19.5282 97.4574 19.524C97.1808 19.4657 96.8991 19.4346 96.6165 19.4311C95.6679 19.343 94.2353 19.2941 92.3137 19.2941C91.6927 19.2941 91.3358 19.2941 91.2625 19.2941C90.8077 19.3675 90.5828 19.5582 90.5828 19.8662C90.5828 21.1228 90.6366 22.575 90.7442 24.213C90.8322 25.6798 90.8762 26.3497 90.8762 26.1688C90.8762 26.4002 90.5975 26.5322 90.0401 26.5648C90.1917 26.5648 89.7956 26.5648 88.8568 26.5648C87.7861 26.6044 86.7141 26.5455 85.6542 26.3888C85.3951 26.3301 85.2679 26.1932 85.2679 25.9781C85.2679 25.0002 85.3005 23.5236 85.3657 21.5482C85.4309 19.5728 85.4651 18.0946 85.4684 17.1134C85.4684 15.9432 85.4146 14.4764 85.307 12.7129C85.1506 9.97476 85.0626 8.50303 85.0577 8.31234V8.15587C85.0577 7.93095 85.1799 7.82339 85.4537 7.82339C86.1089 7.82339 87.1015 7.82339 88.4265 7.8625C89.7516 7.90162 90.7442 7.90162 91.4091 7.90162C92.0741 7.90162 93.184 7.84783 94.6069 7.74027C96.0297 7.6327 97.0956 7.5838 97.7997 7.5838C98.243 7.5838 98.4924 7.76471 98.5478 8.12653C98.5478 8.50791 98.5478 9.10443 98.6016 9.84275C98.6016 10.0383 98.6749 10.4148 98.7727 10.9722C98.835 11.3471 98.8661 11.7265 98.8656 12.1066Z" fill="#6F5E58"/>
<path d="M109.153 18.1402C109.153 18.4874 108.962 18.6585 108.581 18.6585C108.415 18.6585 108.17 18.6585 107.843 18.6243C107.515 18.5901 107.28 18.5901 107.119 18.5901C106.594 18.5355 106.066 18.6577 105.618 18.9372C105.461 19.1306 105.345 19.3538 105.277 19.5933C105.209 19.8329 105.19 20.0837 105.222 20.3307C105.222 20.7121 105.222 21.3086 105.222 22.0665C105.222 22.8244 105.246 23.4209 105.246 23.8023C105.246 24.0614 105.246 24.4428 105.3 24.9513C105.354 25.4598 105.354 25.8412 105.354 26.0857C105.354 26.3301 105.207 26.4181 104.914 26.4475C104.489 26.4817 103.833 26.5013 102.958 26.5013C102.284 26.5079 101.61 26.4801 100.939 26.4181C100.645 26.3839 100.499 26.2372 100.499 25.983C100.499 25.2756 100.499 24.2146 100.499 22.7999C100.499 21.3852 100.499 20.3242 100.499 19.6169C100.54 17.8844 100.348 16.1542 99.9266 14.4731C99.9093 14.4076 99.8994 14.3404 99.8973 14.2726C99.8946 14.2121 99.9132 14.1526 99.9498 14.1044C99.9864 14.0561 100.039 14.0223 100.098 14.0086C100.587 13.9565 101.301 13.8587 102.239 13.7152C103.638 13.4414 104.361 13.3045 104.405 13.3045C104.562 13.3045 104.665 13.5832 104.709 14.1406C104.753 14.698 104.836 14.9767 104.948 14.9767C104.826 14.9767 105.188 14.7469 106.038 14.2775C106.782 13.8447 107.623 13.6059 108.483 13.5832C108.972 13.5832 109.226 13.6859 109.226 13.901C109.22 14.2656 109.194 14.6296 109.148 14.9914C109.094 15.4803 109.065 15.8568 109.055 16.0818C109.046 16.3067 109.055 16.6783 109.055 17.1037C109.143 17.6171 109.153 17.974 109.153 18.1402Z" fill="#6F5E58"/>
<path d="M115.627 20.3209C115.627 20.9664 115.627 21.9296 115.666 23.2106C115.705 24.4917 115.705 25.45 115.705 26.0857C115.705 26.2715 115.593 26.3839 115.373 26.4181C114.016 26.529 112.652 26.529 111.295 26.4181C111.099 26.3839 110.977 26.3252 110.933 26.247C110.909 26.1148 110.901 25.9802 110.908 25.8461C110.908 25.2398 110.908 24.3157 110.948 23.0933C110.987 21.8709 110.987 20.9419 110.987 20.3209C111.014 18.3137 110.916 16.3068 110.693 14.3118C110.693 14.17 110.669 14.0771 110.669 14.0331C110.669 13.857 110.786 13.769 111.026 13.769C111.265 13.769 111.652 13.7935 112.165 13.8473C112.678 13.901 113.055 13.9255 113.314 13.9255C113.573 13.9255 113.955 13.9255 114.468 13.8619C114.981 13.7984 115.368 13.7935 115.627 13.7935C115.886 13.7935 115.945 13.8815 115.945 14.0624C115.945 14.0966 115.945 14.1797 115.92 14.3118C115.711 16.3078 115.613 18.314 115.627 20.3209ZM115.969 10.4442C115.969 11.986 115.102 12.7569 113.368 12.7569C112.703 12.7831 112.05 12.5774 111.52 12.175C111.27 11.9645 111.069 11.7015 110.933 11.4047C110.796 11.1079 110.726 10.7847 110.729 10.458C110.731 10.1313 110.805 9.80904 110.946 9.51426C111.087 9.21948 111.291 8.95936 111.544 8.75239C112.062 8.34206 112.707 8.12584 113.368 8.14121C114.021 8.12976 114.658 8.35166 115.162 8.76706C115.417 8.96569 115.622 9.22035 115.762 9.51124C115.902 9.80213 115.973 10.1214 115.969 10.4442Z" fill="#6F5E58"/>
<path d="M130.388 19.2061C130.388 20.1026 130.1 20.6111 129.523 20.7317C129.425 20.7512 128.509 20.849 126.775 21.025C125.729 21.1359 124.169 21.2728 122.096 21.4358C122.164 21.73 122.302 22.0033 122.499 22.2324C122.695 22.4615 122.945 22.6394 123.225 22.751C123.774 23.0072 124.375 23.1343 124.98 23.1226C125.815 23.111 126.633 22.8926 127.362 22.487L128.369 21.8465C128.772 22.2301 129.092 22.6929 129.308 23.2058C129.613 23.6829 129.835 24.2088 129.963 24.7606C129.963 24.8193 129.899 24.922 129.762 25.0638C128.68 26.2275 127.001 26.8077 124.726 26.8044C123.791 26.8489 122.857 26.708 121.977 26.39C121.096 26.072 120.288 25.583 119.597 24.9513C118.93 24.3053 118.407 23.5249 118.064 22.6617C117.721 21.7986 117.565 20.8724 117.607 19.9445C117.533 18.1071 118.171 16.312 119.387 14.9327C120.002 14.262 120.756 13.7337 121.596 13.3849C122.436 13.0361 123.343 12.8751 124.252 12.9134C125.064 12.9013 125.87 13.0605 126.616 13.3806C127.362 13.7008 128.033 14.1747 128.584 14.7714C129.164 15.3536 129.623 16.0457 129.933 16.8071C130.242 17.5686 130.397 18.3841 130.388 19.2061ZM125.738 18.3945C125.742 18.1234 125.692 17.8544 125.591 17.6027C125.49 17.351 125.341 17.1216 125.152 16.9276C124.977 16.7304 124.763 16.5729 124.522 16.4658C124.282 16.3587 124.021 16.3044 123.758 16.3067C123.488 16.3038 123.221 16.3664 122.98 16.489C122.739 16.6116 122.531 16.7906 122.374 17.0108C122.042 17.4485 121.869 17.9868 121.885 18.5363C121.879 18.5863 121.884 18.6371 121.9 18.6848C121.917 18.7325 121.944 18.7756 121.98 18.8108C122.016 18.846 122.06 18.8722 122.108 18.8874C122.156 18.9025 122.207 18.9062 122.257 18.8981C123.281 18.8631 124.302 18.7602 125.313 18.5901C125.567 18.5607 125.714 18.4923 125.714 18.3945H125.738Z" fill="#6F5E58"/>
<path d="M145.057 26.0368C145.061 26.0885 145.054 26.1404 145.037 26.1895C145.021 26.2385 144.994 26.2836 144.959 26.3221C144.925 26.3605 144.882 26.3915 144.835 26.413C144.788 26.4346 144.737 26.4463 144.685 26.4475C144.436 26.4817 143.79 26.5013 142.729 26.5013C142.037 26.522 141.344 26.4942 140.656 26.4181C140.533 26.3954 140.424 26.3265 140.35 26.2256C140.277 26.1247 140.244 25.9994 140.26 25.8754C140.26 25.4598 140.26 24.8291 140.299 23.9881C140.338 23.1471 140.338 22.5212 140.338 22.0861C140.338 21.7601 140.329 21.2711 140.309 20.6192C140.309 19.9689 140.309 19.48 140.309 19.1524C140.309 17.9365 139.781 17.3286 138.725 17.3286C138.287 17.362 137.868 17.5197 137.517 17.7833C137.028 18.1207 136.774 18.4483 136.774 18.7612V25.939C136.781 25.9985 136.777 26.0589 136.76 26.1164C136.743 26.1739 136.714 26.2273 136.675 26.2732C136.637 26.3191 136.589 26.3565 136.535 26.3832C136.482 26.4098 136.423 26.425 136.363 26.4279C136.05 26.4622 135.42 26.4817 134.461 26.4817C133.787 26.4991 133.112 26.4714 132.442 26.3986C132.168 26.3546 132.031 26.2079 132.031 25.9634C132.031 25.2691 132.031 24.2277 132.031 22.839C132.031 21.4504 132.031 20.3943 132.031 19.7049C132.082 17.9573 131.908 16.2105 131.513 14.5073C131.495 14.4418 131.486 14.3746 131.483 14.3069C131.48 14.2428 131.498 14.1794 131.534 14.1264C131.57 14.0734 131.623 14.0337 131.684 14.0135C132.246 13.9499 132.989 13.8521 133.918 13.7201C135.327 13.4463 136.119 13.3094 136.295 13.3094C136.393 13.3094 136.471 13.6077 136.525 14.2091C136.578 14.8105 136.652 15.1039 136.749 15.1039C136.652 15.1039 137.126 14.7958 138.177 14.1797C139 13.6366 139.951 13.3181 140.935 13.2556C141.934 13.2207 142.919 13.4994 143.751 14.0526C144.159 14.3377 144.489 14.7208 144.711 15.1669C144.932 15.6129 145.038 16.1074 145.018 16.6049V20.8441C145.018 21.4211 145.018 22.2816 145.018 23.4307C145.018 24.5797 145.057 25.4402 145.057 26.0368Z" fill="#6F5E58"/>
<path d="M161.344 7.55935C161.344 7.36377 161.309 7.65714 161.241 8.43946C161.138 9.41736 161.065 10.6789 161.011 12.2142C160.943 13.9516 160.907 15.9269 160.904 18.1402C160.856 20.7517 160.959 23.3638 161.212 25.9634C161.212 26.1346 161.241 26.2372 161.241 26.2812C161.241 26.3252 161.173 26.4377 161.04 26.4573C160.715 26.5029 159.539 26.5241 157.515 26.5208C157.026 26.5208 156.762 26.4279 156.694 26.2421C156.694 25.9096 156.659 25.5723 156.64 25.2349C156.627 25.154 156.589 25.0789 156.532 25.0197C156.46 25.0645 156.394 25.1188 156.337 25.1811C155.863 25.6455 155.301 26.0097 154.683 26.2516C154.066 26.4936 153.406 26.6084 152.743 26.5893C151.896 26.6231 151.052 26.4648 150.274 26.1261C149.497 25.7874 148.807 25.2771 148.254 24.6335C147.156 23.3066 146.583 21.622 146.646 19.9004C146.578 18.1712 147.14 16.476 148.225 15.1283C148.776 14.4733 149.47 13.9534 150.253 13.6084C151.036 13.2634 151.888 13.1026 152.743 13.1383C153.325 13.1057 153.908 13.2029 154.448 13.4227C154.988 13.6426 155.473 13.9796 155.867 14.4095C155.995 14.5513 156.083 14.6247 156.136 14.6247C156.19 14.6247 156.254 14.5073 156.254 14.2775C156.254 13.5979 156.254 12.576 156.2 11.2216C156.146 9.8672 156.146 8.85018 156.146 8.18032C156.146 7.92117 156.219 7.77449 156.361 7.74027C156.928 7.71582 157.706 7.66203 158.698 7.57891C159.488 7.51676 160.274 7.40572 161.05 7.24643C161.246 7.22687 161.344 7.34911 161.344 7.55935ZM156.337 19.7831C156.342 19.098 156.079 18.438 155.603 17.9446C155.388 17.6915 155.12 17.4877 154.819 17.3468C154.518 17.2059 154.19 17.1313 153.858 17.1281C153.527 17.1155 153.199 17.1805 152.898 17.3181C152.597 17.4557 152.333 17.6619 152.127 17.9202C151.694 18.4545 151.466 19.1251 151.482 19.8124C151.463 20.4802 151.695 21.1308 152.132 21.6362C152.339 21.8924 152.603 22.0975 152.902 22.2357C153.201 22.3739 153.528 22.4415 153.858 22.4332C154.195 22.4384 154.53 22.3697 154.838 22.232C155.147 22.0944 155.421 21.891 155.642 21.6362C156.101 21.1252 156.349 20.4597 156.337 19.7733V19.7831Z" fill="#6F5E58"/>
<path d="M171.088 15.6613C171.063 15.8006 170.993 15.9277 170.888 16.0231C170.645 15.9613 170.395 15.9301 170.145 15.9302C169.681 15.9137 169.222 16.0326 168.825 16.2724C168.627 16.3868 168.465 16.5519 168.353 16.7505C168.241 16.9491 168.184 17.174 168.189 17.4019C168.264 17.8687 168.505 18.2925 168.869 18.595C169.323 19.0536 169.745 19.5438 170.13 20.0618C170.57 20.6987 170.805 21.4541 170.805 22.2279C170.798 22.7168 170.709 23.2012 170.541 23.6605C170.397 24.1296 170.13 24.5517 169.768 24.8829C169.078 25.4733 168.303 25.9578 167.47 26.3204C166.648 26.6984 165.759 26.9063 164.854 26.9316C164.678 26.9316 164.277 26.4426 163.666 25.4647C163.055 24.4868 162.742 23.9147 162.742 23.7045C162.742 23.6263 162.791 23.5774 162.884 23.5578L164.761 23.2106C165.539 22.9662 165.93 22.5555 165.93 21.9883C165.871 21.4705 165.63 20.9904 165.25 20.6339C164.442 19.7375 164.021 19.2632 163.989 19.211C163.555 18.6268 163.319 17.9194 163.314 17.1917C163.314 15.8617 163.984 14.7469 165.333 13.8033C166.464 13.001 167.815 12.5688 169.201 12.5662C169.338 12.5662 169.69 13.0552 170.247 13.9939C170.599 14.5106 170.882 15.0711 171.088 15.6613Z" fill="#6F5E58"/>
</g>
</g>
<defs>
<clipPath id="clip0_52_114">
<rect width="195.23" height="30" fill="white"/>
</clipPath>
<clipPath id="clip1_52_114">
<rect width="195.233" height="25" fill="white" transform="translate(0 2)"/>
</clipPath>
</defs>
</svg>
