<svg width="298" height="201" viewBox="0 0 298 201" fill="none" xmlns="http://www.w3.org/2000/svg">
<g clip-path="url(#clip0_6_7)">
<path d="M292.957 21.2511H161.012C159.685 21.2401 158.408 21.7669 157.461 22.7162C156.515 23.6654 155.975 24.9594 155.961 26.3143V34.4631C155.975 35.818 156.515 37.1121 157.461 38.0613C158.408 39.0105 159.685 39.5374 161.012 39.5263H292.957C294.283 39.5374 295.56 39.0104 296.506 38.0611C297.452 37.1117 297.991 35.8177 298.004 34.4631V26.3143C297.991 24.9598 297.452 23.6657 296.506 22.7164C295.56 21.7671 294.283 21.2401 292.957 21.2511Z" fill="#6F5D57"/>
<path d="M188.88 168.227C190.502 189.403 160.827 201 160.827 201C160.827 201 261.96 201.219 267.551 169.8C267.685 169.508 267.798 169.206 267.888 168.897L288.776 44.8918H165.333L188.88 168.227ZM248.874 73.4106C253.434 76.745 256.866 81.4455 258.694 86.8607C262.026 96.6203 261.438 106.308 258.424 115.943C255.963 123.901 251.722 131.164 246.037 137.16C242.703 140.712 238.81 143.669 234.518 145.906C229.641 148.44 224.49 149.861 218.907 149.445C216.74 149.287 214.604 148.655 212.478 148.133C212.27 148.027 212.09 147.871 211.951 147.68C211.813 147.489 211.721 147.267 211.682 147.033C211.13 142.193 211.956 137.523 213.73 133.019C216.792 125.241 222.061 118.923 228.341 113.315C233.781 108.452 238.635 103.166 242.257 96.9115C246.234 90.0333 248.589 82.724 248.755 74.8059C248.763 74.4126 248.818 74.0232 248.874 73.4106ZM195.975 110.248C197.778 99.2824 202.514 89.5946 210.297 81.3325C214.515 76.8554 218.914 73.1156 224.428 70.1019C230.478 67.8331 236.703 64.3619 244.179 70.6086C244.749 78.4776 242.942 85.8436 239.235 92.8504C235.529 99.8572 230.163 105.431 224.302 110.732C217.896 116.518 212.745 123.169 209.546 131.087C207.939 135.054 207.257 138.597 206.987 144.889C204.261 142.957 201.972 140.452 200.274 137.542C195.149 128.939 194.416 119.713 195.975 110.248Z" fill="#6F5D57"/>
<path d="M278.427 0H175.542C171.658 0 168.459 6.87066 167.833 15.8816H286.132C285.506 6.85932 282.326 0 278.427 0Z" fill="#6F5D57"/>
<path d="M89.4652 160.861C89.095 160.29 88.7247 160.003 88.3544 160.003C88.1717 160.003 87.2756 160.987 85.6661 162.956C84.0118 165.022 82.0939 166.852 79.9637 168.397C77.3163 170.297 74.1642 171.326 70.9287 171.347C65.5521 171.347 61.2543 168.448 58.0352 162.65C55.0729 157.313 53.5918 150.707 53.5918 142.832C53.5918 135.063 55.0729 128.535 58.0352 123.248C61.2444 117.546 65.5422 114.696 70.9287 114.699C74.0366 114.699 77.0347 115.735 79.9229 117.807C82.1013 119.482 84.0557 121.441 85.7365 123.634C87.3842 125.71 88.2951 126.746 88.4803 126.746C88.702 126.747 88.9202 126.69 89.1145 126.581C89.3088 126.471 89.4728 126.314 89.5911 126.122C90.2503 125.346 91.8548 121.796 94.4049 115.474C96.9549 109.152 98.2262 105.496 98.2188 104.508C98.2188 103.626 97.8485 102.618 97.108 101.483C90.3761 91.1728 81.0869 86.0176 69.2401 86.0176C58.3463 86.0176 49.3693 91.7677 42.3091 103.268C35.5353 114.254 32.1484 127.62 32.1484 143.365C32.1484 159.637 35.6045 173.109 42.5165 183.78C49.6112 194.814 58.8684 200.332 70.2881 200.335C81.4411 200.335 90.3823 194.663 97.1117 183.319C97.8782 181.969 98.2633 180.883 98.2633 180.052C98.2633 179.484 96.9278 176.324 94.2568 170.572C91.6499 165.038 90.0528 161.802 89.4652 160.861Z" fill="#6F5D57"/>
<path d="M160.279 107.31C159.879 104.048 159.642 101.846 159.568 100.704C159.42 96.2497 159.347 92.9083 159.349 90.6799C159.127 88.5547 158.103 87.4922 156.276 87.4922C153.351 87.4922 148.953 87.8035 143.083 88.4262C137.212 89.0488 132.816 89.3589 129.893 89.3564C127.15 89.3564 123.045 89.2795 117.577 89.1257C112.109 88.9719 108.026 88.8938 105.328 88.8913C104.195 88.8913 103.647 89.5391 103.684 90.8349L103.74 91.7689C103.777 92.9587 104.124 101.559 104.78 117.569C105.22 127.935 105.439 136.536 105.439 143.373C105.439 149.125 105.302 157.766 105.028 169.294C104.754 180.822 104.617 189.461 104.617 195.211C104.617 196.454 105.148 197.256 106.209 197.619C108.184 198.292 112.59 198.63 119.425 198.633C123.301 198.633 124.929 198.658 124.309 198.708C126.612 198.499 127.764 197.723 127.764 196.379C127.764 197.309 127.581 193.449 127.216 184.797C126.779 175.218 126.559 166.746 126.557 159.383C126.557 157.568 127.49 156.453 129.356 156.04C129.684 155.992 131.129 155.967 133.689 155.964C141.625 155.964 147.55 156.223 151.462 156.74C154.239 157.103 155.391 157.284 154.917 157.284C155.658 157.284 156.143 156.819 156.398 155.885C156.798 154.592 156.999 149.981 157.002 142.053C157.002 132.932 156.398 128.372 155.191 128.372C152.666 128.372 148.89 128.566 143.864 128.954C138.838 129.343 135.062 129.538 132.537 129.541C131.414 129.589 130.29 129.462 129.204 129.162C127.449 128.489 126.572 125.691 126.572 120.768C126.572 116.674 127.248 114.187 128.601 113.307C129.186 112.944 131.234 112.763 134.744 112.763C137.523 112.763 141.702 113.099 147.278 113.772C152.855 114.445 157.014 114.782 159.757 114.782C160.497 114.782 160.868 114.498 160.868 113.927C160.804 111.711 160.607 109.502 160.279 107.31Z" fill="#6F5D57"/>
<path d="M14.7782 172.425C6.63185 172.425 0 178.308 0 185.565C0 192.821 6.61704 198.709 14.7782 198.709C22.9393 198.709 29.5564 192.825 29.5564 185.565C29.5564 178.305 22.9393 172.425 14.7782 172.425Z" fill="#6F5D57"/>
</g>
<defs>
<clipPath id="clip0_6_7">
<rect width="298" height="201" fill="white"/>
</clipPath>
</defs>
</svg>
